<?xml version="1.0" encoding="UTF-8" standalone="no"?><!DOCTYPE svg PUBLIC "-//W3C//DTD SVG 1.1//EN" "http://www.w3.org/Graphics/SVG/1.1/DTD/svg11.dtd"><svg width="100%" height="100%" viewBox="0 0 115 114" version="1.1" xmlns="http://www.w3.org/2000/svg" xmlns:xlink="http://www.w3.org/1999/xlink" xml:space="preserve" xmlns:serif="http://www.serif.com/" style="fill-rule:evenodd;clip-rule:evenodd;stroke-linejoin:round;stroke-miterlimit:2;"><path d="M30.553,105.165c0.126,-0.241 0.395,-0.459 0.839,-0.827c0.814,-0.673 2.076,-1.559 4.04,-2.878c6.128,-4.111 8.612,-6.119 11.889,-9.474l0.003,-0.003c5.509,-5.666 10.68,-13.194 15.059,-21.952l0.002,-0.004c4.222,-8.492 6.545,-15.836 7.522,-23.87l0,-0.003c0.319,-2.667 0.242,-9.276 -0.173,-12.25c-1.286,-9.513 -4.591,-17.173 -9.945,-23.074c5.233,2.949 10.051,6.82 13.994,11.308l0.001,0.001c4.066,4.623 8.52,11.189 11.727,17.258l0.004,0.007l0.74,1.386l-0.078,2.695c-0.134,4.419 -0.566,7.529 -1.667,11.919l-0,0.001c-1.572,6.288 -4.844,14.537 -9,22.744c-4.949,9.763 -8.965,15.075 -16.568,21.869c-3.39,3.029 -5.332,4.885 -6.427,6.188c-0.955,1.136 -1.371,1.979 -1.561,2.725l-0.001,0.004c-0.436,1.723 0.043,3.091 1.499,4.118c-2.492,-0.331 -5.011,-0.812 -7.527,-1.443c-4.632,-1.162 -8.761,-2.714 -11.538,-4.269c-1.419,-0.794 -2.479,-1.48 -2.834,-2.177Zm-24.021,-78.756c3.743,-7.7 8.798,-13.88 14.632,-17.666c1.639,-1.064 4.685,-2.517 6.455,-3.079c1.62,-0.506 3.844,-0.967 5.609,-1.171c1.482,-0.156 3.883,-0.113 5.64,0.078c-3.838,2.523 -7.52,5.87 -10.513,9.602l-0.005,0.006l-0.529,0.665l-0.397,0c-2.435,0 -5.567,0.744 -8.29,1.995l-0.005,0.002c-3.862,1.79 -8.642,5.456 -12.598,9.568Zm23.805,-6.363c0.323,0.044 0.788,0.111 1.277,0.186c5.61,0.901 13.153,5.027 17.284,9.447l0.002,0.002c4.882,5.205 7.078,11.694 8.446,24.001c0.348,3.147 1.065,11.724 1.065,12.753c0,0.11 -0.058,0.204 -0.143,0.4c-0.219,0.508 -0.602,1.248 -1.245,2.468c-5.279,9.984 -11.158,17.718 -17.422,22.861c1.328,-2.909 2.015,-5.996 2.015,-9.042c0,-2.454 -0.32,-4.454 -1.093,-6.756c-1.132,-3.38 -2.882,-6.293 -5.313,-8.824c-4.719,-4.945 -11.062,-7.866 -17.126,-7.98c0.273,-2.103 0.914,-6.028 1.369,-8.269l0.001,-0.003c1.454,-7.227 4.601,-18.288 6.586,-23.199c1.146,-2.805 2.801,-5.936 4.27,-8.006l0.01,-0.014l0.018,-0.026Zm28.084,-20.046c1.666,0.049 3.267,0.136 4.293,0.251c8.464,0.986 16.735,3.671 23.9,7.776c7.698,4.431 14.895,10.81 19.55,17.374c3.57,5.045 5.99,10.606 7.2,16.595l0,0.001c0.757,3.743 0.901,5.466 0.901,10.472c0,4.995 -0.117,6.397 -0.908,10.736c-1.916,10.48 -6.973,21.965 -13.261,30.065l-0.003,0.004c-0.786,1.018 -2.227,2.585 -3.604,3.969c0.562,-1.446 1.062,-2.916 1.437,-4.255l0,-0.002c0.961,-3.451 1.814,-8.068 2.24,-12.292c0.253,-2.468 0.253,-10.071 -0.001,-12.51c-0.975,-9.373 -3.614,-18.291 -8.111,-27.286c-0.696,-1.391 -0.8,-1.6 -0.873,-2.552l-0.001,-0.009c-0.721,-8.797 -3.884,-17.062 -9.044,-23.696l-0.001,-0.001c-1.411,-1.811 -4.535,-5.018 -6.442,-6.621l-0.002,-0.001c-4.405,-3.692 -9.914,-6.485 -15.08,-7.635l-0.006,-0.001c-0.705,-0.154 -1.438,-0.281 -2.185,-0.38Zm-1.895,109.305l0.034,-0.04c0.699,-0.794 1.884,-1.9 3.811,-3.627c1.576,-1.407 3.77,-3.43 4.898,-4.481l0.002,-0.002c5.815,-5.437 10.382,-11.812 14.952,-20.984c5.332,-10.648 8.835,-20.254 10.212,-27.838c0.1,-0.545 0.197,-1.143 0.287,-1.758c4.556,11.874 5.685,23.709 3.444,35.904c-1.262,6.826 -3.422,12.37 -6.476,16.466c-0.893,1.195 -0.972,1.259 -2.247,1.816c-6.835,2.954 -16.177,4.782 -24.444,4.782l-0.008,0c-2.27,0.01 -3.531,-0.022 -4.467,-0.239Zm-52.561,-32.004c-2.99,-7.955 -4.353,-16.812 -3.869,-25.376c0.274,-4.794 0.432,-5.951 1.282,-8.182c2.061,-5.403 5.013,-9.844 9.591,-14.437l0.002,-0.003c4.774,-4.808 8.888,-7.656 13.072,-8.824c-1.303,2.313 -2.425,4.733 -3.319,7.137l-0.003,0.007c-0.855,2.331 -2.644,8.082 -3.794,12.216l-0.001,0.002c-1.886,6.812 -3.38,14.138 -3.988,19.642c-0.04,0.348 -0.084,0.688 -0.119,0.947c-2.807,1.102 -5.442,3.834 -6.954,7.398l-0,0c-1.214,2.863 -1.814,5.75 -1.901,9.472Zm21.481,27.184c-5.062,-3.436 -9.519,-7.542 -12.958,-11.996c-0.765,-0.99 -0.899,-1.255 -1.3,-2.547l-0.001,-0.004c-1.354,-4.327 -1.968,-7.431 -2.1,-10.654c-0.161,-4.062 0.546,-7.718 1.957,-10.391c0.377,-0.713 0.801,-1.354 1.275,-1.902l-0.002,0.049c-0.448,8.767 0.797,15.558 3.907,21.81l0.001,0.001c2.959,5.935 7.319,10.565 10.749,11.743c0.232,0.08 0.465,0.148 0.699,0.205c-1.008,0.889 -1.447,1.515 -1.831,2.258c-0.201,0.386 -0.335,0.889 -0.395,1.427Zm-7.869,-39.817c0.978,0.003 2.068,0.113 3.037,0.298c1.675,0.324 3.053,0.809 4.939,1.723c5.556,2.723 9.464,7.546 10.615,13.201l0.002,0.008c0.426,2.048 0.4,4.617 -0.053,6.596c-0.744,3.223 -2.351,6.325 -4.279,8.129l-0,0c-0.815,0.763 -1.54,1.236 -2.33,1.265c-0.81,0.029 -1.611,-0.397 -2.546,-1.113c-1.586,-1.234 -3.365,-3.381 -4.877,-5.869c-3.983,-6.551 -5.247,-13.518 -4.507,-24.238Zm28.078,-58.002c0.286,0.139 0.643,0.316 0.951,0.48l0.011,0.006c10.425,5.483 16.309,14.499 18.035,27.423c0.325,2.466 0.443,7.333 0.237,9.818c-0.323,3.635 -1.068,7.465 -2.181,11.246c-0.991,-10.216 -2.495,-16.832 -4.854,-21.777c-3.164,-6.684 -8.539,-11.807 -16.569,-15.701c-2.537,-1.233 -4.974,-2.119 -7.287,-2.646c0.337,-0.366 0.712,-0.764 1.111,-1.174l0.002,-0.002c3.125,-3.213 6.084,-5.455 9.384,-7.121c0.385,-0.189 0.826,-0.396 1.162,-0.552Zm36.562,17.792c-2.198,-2.986 -4.45,-5.596 -7.018,-8.172c-4.09,-4.106 -7.026,-6.434 -11.417,-9.066l-0.002,-0.001c-0.752,-0.449 -1.587,-0.913 -2.466,-1.373c8.348,2.505 16.247,9.313 20.602,17.997l0,0.001c0.102,0.203 0.203,0.408 0.302,0.615Z" style="fill:#d4a5a5;"/></svg>