<?xml version="1.0" encoding="UTF-8" standalone="no"?>
<!DOCTYPE svg PUBLIC "-//W3C//DTD SVG 1.1//EN" "http://www.w3.org/Graphics/SVG/1.1/DTD/svg11.dtd">
<svg width="100%" height="100%" viewBox="0 0 4733 3404" version="1.1" xmlns="http://www.w3.org/2000/svg" xmlns:xlink="http://www.w3.org/1999/xlink" xml:space="preserve" xmlns:serif="http://www.serif.com/" style="fill-rule:evenodd;clip-rule:evenodd;stroke-linejoin:round;stroke-miterlimit:2;">
    <g transform="matrix(1,0,0,1,-632.121,-173.663)">
        <g transform="matrix(0.416667,0,0,-0.416667,-260.172,6314.82)">
            <path d="M5755,14729C5541,14707 5304,14664 5090,14608C4964,14576 4721,14498 4653,14469C4629,14459 4570,14446 4522,14440C3874,14360 3330,13987 2891,13320C2602,12881 2374,12294 2276,11734C2262,11656 2235,11528 2216,11449C2158,11212 2148,11124 2143,10820C2137,10517 2148,10384 2195,10140C2293,9641 2574,8992 2916,8473C3014,8324 3051,8289 3089,8309C3104,8318 3115,8309 3161,8252C3247,8146 3494,7903 3632,7788C4075,7422 4583,7153 5251,6929C6549,6495 8011,6452 9135,6817C9391,6900 9639,7012 9806,7121L9883,7172L9939,7156C10128,7104 10272,7129 10815,7304C11453,7511 11758,7573 12130,7574C12398,7574 12551,7543 12785,7440C12953,7366 13029,7322 13282,7157C13448,7049 13450,7048 13475,7064C13504,7083 13507,7111 13483,7136C13473,7146 13402,7195 13325,7245C12829,7569 12547,7670 12136,7670C11750,7670 11407,7599 10735,7380C10581,7330 10410,7278 10355,7264C10244,7237 10098,7224 10028,7234L9982,7241L10093,7353C10155,7415 10229,7500 10258,7543C10496,7890 10516,8296 10303,8490C10234,8554 10173,8574 10071,8568C9974,8562 9914,8532 9813,8437C9685,8315 9588,8135 9548,7941C9499,7703 9563,7461 9721,7295L9790,7222L9698,7167C9253,6904 8625,6736 7865,6680C7683,6666 7184,6666 7005,6680C6367,6729 5797,6842 5243,7031C5064,7092 4787,7200 4794,7207C4796,7209 4807,7207 4817,7202C4852,7183 5109,7101 5241,7066C5507,6996 5767,6952 6036,6929C6220,6914 6654,6922 6820,6944C7385,7019 7814,7200 8115,7490C8169,7543 8226,7585 8290,7621C8634,7812 8911,8062 9172,8414C9558,8935 9874,9669 10005,10349C10060,10639 10074,10782 10074,11100C10075,11538 10035,11819 9918,12179C9702,12847 9219,13463 8523,13958C7920,14387 7227,14648 6488,14725C6329,14741 5897,14744 5755,14729ZM6515,14626C7082,14560 7636,14380 8116,14105C8632,13808 9114,13380 9426,12940C9668,12598 9832,12221 9914,11815C9965,11563 9975,11447 9975,11110C9975,10775 9967,10681 9914,10390C9786,9690 9448,8923 9028,8382C8933,8259 8698,8019 8595,7938C8506,7868 8360,7767 8360,7774C8360,7777 8375,7804 8394,7833C8492,7985 8615,8276 8679,8505C8740,8724 8794,9017 8821,9285C8837,9441 8837,9921 8821,10075C8759,10671 8591,11238 8305,11810C8248,11924 8242,11942 8236,12020C8191,12569 7994,13085 7672,13499C7584,13612 7389,13812 7270,13912C6998,14140 6658,14313 6339,14384C6115,14433 5845,14437 5645,14394C5525,14368 5507,14367 5408,14389C5279,14417 5136,14438 5017,14446C4963,14450 4923,14456 4927,14460C4940,14472 5199,14539 5352,14570C5517,14603 5679,14627 5835,14640C5982,14652 6354,14644 6515,14626ZM5055,14331C5110,14320 5179,14302 5209,14292L5263,14274L5154,14213C4865,14050 4581,13806 4358,13528L4288,13440L4205,13440C4061,13440 3876,13395 3715,13321C3413,13181 3022,12856 2754,12524C2671,12420 2530,12216 2485,12132C2470,12104 2455,12081 2454,12083C2452,12085 2468,12144 2489,12216C2737,13036 3186,13700 3733,14055C3847,14129 4059,14230 4182,14269C4294,14304 4448,14336 4570,14350C4702,14364 4939,14355 5055,14331ZM6145,14320C6821,14242 7507,13724 7857,13026C7986,12769 8080,12472 8115,12215C8121,12165 8121,12165 8048,12290C7773,12757 7537,13073 7230,13381C6972,13640 6787,13787 6510,13953C6299,14079 5983,14224 5787,14286C5756,14296 5733,14307 5737,14311C5755,14329 6016,14334 6145,14320ZM5676,14220C6288,14037 6878,13655 7311,13162C7581,12855 7877,12419 8090,12016L8153,11898L8147,11691C8138,11394 8109,11185 8035,10890C7931,10474 7715,9928 7440,9385C7110,8734 6842,8380 6335,7927C5978,7608 5874,7496 5851,7406C5812,7252 5985,7180 6400,7180C6829,7180 7394,7271 7789,7405C7847,7424 7895,7438 7898,7436C7907,7426 7739,7323 7626,7269C7019,6978 6164,6933 5315,7146C4793,7277 4366,7483 4298,7637C4281,7676 4281,7681 4296,7719C4320,7780 4395,7842 4660,8020C5049,8281 5207,8408 5415,8621C5766,8982 6095,9462 6374,10020C6642,10559 6790,11025 6852,11535C6872,11702 6867,12116 6841,12302C6722,13183 6327,13810 5645,14199C5596,14227 5560,14250 5566,14250C5572,14250 5621,14237 5676,14220ZM5509,14164C6222,13789 6627,13174 6745,12290C6767,12123 6775,11793 6761,11625C6728,11253 6629,10850 6477,10475C6424,10345 6429,10332 6405,10640C6343,11432 6246,11918 6078,12270C5883,12682 5550,12996 5055,13236C4878,13322 4709,13381 4550,13411C4487,13423 4429,13435 4422,13436C4404,13441 4463,13513 4620,13674C4834,13894 5037,14047 5263,14161C5328,14193 5386,14220 5392,14220C5398,14220 5451,14195 5509,14164ZM4204,13323C4072,13124 3961,12904 3880,12686C3825,12536 3710,12166 3636,11900C3515,11463 3419,10993 3380,10640C3364,10501 3367,10506 3310,10486C3148,10428 2998,10269 2911,10064C2830,9873 2795,9680 2796,9420C2797,9229 2813,9096 2859,8905C2870,8861 2877,8824 2875,8822C2871,8817 2788,8964 2727,9086C2417,9704 2268,10443 2308,11152C2327,11485 2340,11565 2399,11720C2539,12087 2739,12389 3050,12701C3471,13125 3822,13323 4199,13348C4222,13350 4222,13350 4204,13323ZM4496,13325C4883,13263 5404,12979 5689,12674C6021,12320 6177,11881 6270,11044C6293,10836 6340,10269 6340,10201C6340,10162 6324,10126 6236,9959C5877,9280 5475,8758 5048,8415C4975,8356 4802,8232 4663,8139C4320,7909 4254,7854 4207,7763C4186,7723 4185,7651 4205,7605C4226,7554 4313,7466 4400,7408C4501,7340 4501,7338 4395,7394C3896,7660 3454,8025 3139,8433C3078,8512 3067,8533 3035,8636C2943,8930 2902,9141 2893,9360C2874,9840 3032,10239 3293,10371C3343,10397 3350,10398 3350,10383C3350,10373 3345,10271 3340,10156C3312,9609 3388,9185 3582,8795C3758,8442 4010,8160 4214,8090C4423,8018 4636,8138 4810,8426C4941,8641 5010,8880 5010,9115C5010,9261 4991,9380 4945,9517C4877,9720 4772,9895 4626,10047C4336,10351 3945,10530 3573,10530L3470,10530L3470,10563C3470,10623 3530,11013 3570,11210C3666,11687 3874,12417 4005,12741C4083,12932 4196,13145 4296,13286C4344,13355 4327,13351 4496,13325ZM8396,11374C8733,10547 8821,9724 8665,8875C8579,8410 8430,8033 8222,7754C8145,7651 8138,7646 8028,7598C7570,7400 6944,7277 6390,7277C6156,7276 6066,7287 5985,7326C5956,7340 5950,7347 5950,7375C5950,7437 6009,7504 6270,7738C6372,7829 6514,7960 6587,8028C6956,8373 7245,8778 7535,9360C7876,10041 8101,10655 8189,11140C8216,11287 8240,11497 8240,11580C8240,11704 8248,11707 8298,11600C8323,11548 8366,11446 8396,11374ZM3784,10413C3903,10390 4001,10356 4135,10291C4531,10097 4808,9752 4890,9349C4921,9200 4919,9013 4886,8869C4832,8635 4713,8411 4573,8280C4416,8133 4278,8128 4102,8263C3990,8350 3863,8501 3756,8677C3483,9126 3394,9603 3447,10342L3453,10429L3509,10433C3592,10438 3695,10430 3784,10413ZM10204,8446C10257,8415 10304,8351 10332,8272C10359,8197 10360,8035 10335,7935C10286,7743 10191,7587 10014,7413C9946,7345 9887,7290 9882,7290C9857,7290 9776,7368 9733,7433C9657,7546 9635,7627 9635,7785C9636,7941 9650,8003 9720,8145C9853,8416 10048,8537 10204,8446Z" style="fill:#d594b2;fill-rule:nonzero;"/>
        </g>
    </g>
</svg>
